<mxfile host="65bd71144e">
    <diagram id="2vCs8MfiK8aJ5e3EdZrz" name="Page-1">
        <mxGraphModel dx="368" dy="607" grid="1" gridSize="10" guides="1" tooltips="1" connect="1" arrows="1" fold="1" page="1" pageScale="1" pageWidth="850" pageHeight="1100" math="0" shadow="0">
            <root>
                <mxCell id="0"/>
                <mxCell id="1" parent="0"/>
                <mxCell id="17" value="SUELDO = &lt;font style=&quot;color: light-dark(rgb(0, 0, 0), rgb(255, 51, 51));&quot;&gt;neto &lt;/font&gt;+ &lt;font style=&quot;&quot;&gt;&lt;font style=&quot;color: light-dark(rgb(0, 0, 0), rgb(0, 255, 0));&quot;&gt;bono &lt;/font&gt;&lt;font style=&quot;&quot;&gt;&lt;font style=&quot;color: light-dark(rgb(0, 0, 0), rgb(0, 255, 0));&quot;&gt;x&lt;/font&gt; &lt;/font&gt;&lt;/font&gt;&lt;font&gt;&lt;font style=&quot;color: light-dark(rgb(0, 0, 0), rgb(0, 255, 0));&quot;&gt;resultados&lt;/font&gt; &lt;/font&gt;+ bono x presentismo" style="text;align=center;html=1;verticalAlign=middle;whiteSpace=wrap;rounded=0;fontStyle=3" parent="1" vertex="1">
                    <mxGeometry x="10" y="70" width="340" height="30" as="geometry"/>
                </mxCell>
                <mxCell id="24" value="&lt;span&gt;&lt;font style=&quot;color: light-dark(rgb(0, 0, 0), rgb(255, 51, 51));&quot;&gt;NETO&lt;/font&gt;&lt;/span&gt;&lt;div style=&quot;scrollbar-color: rgb(75, 75, 75) rgb(27, 29, 30);&quot;&gt;&lt;font style=&quot;color: light-dark(rgb(0, 0, 0), rgb(255, 51, 51));&quot;&gt;(CATEGORIAS)&lt;/font&gt;&lt;/div&gt;" style="ellipse;whiteSpace=wrap;html=1;" parent="1" vertex="1">
                    <mxGeometry x="10" y="220" width="130" height="80" as="geometry"/>
                </mxCell>
                <mxCell id="25" value="" style="edgeStyle=none;orthogonalLoop=1;jettySize=auto;html=1;entryX=0.057;entryY=0.713;entryDx=0;entryDy=0;entryPerimeter=0;" parent="1" target="26" edge="1">
                    <mxGeometry width="80" relative="1" as="geometry">
                        <mxPoint x="140" y="250" as="sourcePoint"/>
                        <mxPoint x="200" y="220" as="targetPoint"/>
                        <Array as="points">
                            <mxPoint x="180" y="230"/>
                        </Array>
                    </mxGeometry>
                </mxCell>
                <mxCell id="26" value="GERENTES&lt;div&gt;-&lt;/div&gt;&lt;div&gt;$15.000&lt;/div&gt;" style="ellipse;whiteSpace=wrap;html=1;" parent="1" vertex="1">
                    <mxGeometry x="200" y="160" width="130" height="80" as="geometry"/>
                </mxCell>
                <mxCell id="27" value="CADETES&lt;div&gt;-&lt;/div&gt;&lt;div&gt;$20.000&lt;/div&gt;" style="ellipse;whiteSpace=wrap;html=1;" parent="1" vertex="1">
                    <mxGeometry x="200" y="280" width="130" height="80" as="geometry"/>
                </mxCell>
                <mxCell id="29" value="" style="edgeStyle=none;orthogonalLoop=1;jettySize=auto;html=1;entryX=0.012;entryY=0.317;entryDx=0;entryDy=0;entryPerimeter=0;" parent="1" target="27" edge="1">
                    <mxGeometry width="80" relative="1" as="geometry">
                        <mxPoint x="130" y="280" as="sourcePoint"/>
                        <mxPoint x="210" y="280" as="targetPoint"/>
                        <Array as="points"/>
                    </mxGeometry>
                </mxCell>
                <mxCell id="30" value="&lt;h4&gt;&lt;font face=&quot;Verdana&quot;&gt;&lt;i&gt;&lt;span style=&quot;font-weight: normal;&quot;&gt;Entonces debería asumir un tipo abstracto &#39;categoria&#39; que modele las mismas: sea gerente, cadetes (objetos). Y estas tendrá como atributo un neto. Asimismo, pepe, tendrá una referencia a esta que representará a que categoría pertenece&lt;/span&gt;&lt;/i&gt;&lt;/font&gt;&lt;/h4&gt;" style="text;strokeColor=none;align=left;fillColor=none;html=1;verticalAlign=middle;whiteSpace=wrap;rounded=0;fontFamily=Verdana;fontSize=12;" parent="1" vertex="1">
                    <mxGeometry x="10" y="390" width="310" height="60" as="geometry"/>
                </mxCell>
                <mxCell id="31" value="&lt;font style=&quot;color: light-dark(rgb(0, 0, 0), rgb(0, 255, 0));&quot;&gt;BONO&lt;/font&gt;&lt;div&gt;&lt;font style=&quot;color: light-dark(rgb(0, 0, 0), rgb(0, 255, 0));&quot;&gt;x&lt;/font&gt;&lt;/div&gt;&lt;div&gt;&lt;font style=&quot;color: light-dark(rgb(0, 0, 0), rgb(0, 255, 0));&quot;&gt;PRESENTISMO&lt;/font&gt;&lt;/div&gt;" style="ellipse;whiteSpace=wrap;html=1;" vertex="1" parent="1">
                    <mxGeometry x="10" y="520" width="130" height="80" as="geometry"/>
                </mxCell>
            </root>
        </mxGraphModel>
    </diagram>
</mxfile>